<svg width="197" height="130" viewBox="0 0 197 130" fill="none" xmlns="http://www.w3.org/2000/svg">
<path fill-rule="evenodd" clip-rule="evenodd" d="M86.1329 0.796539V8.88795H110.401V0.796539H86.1329ZM69.8275 26.5762C64.5187 33.0995 61.8644 40.5636 61.8644 48.9687C61.8644 59.0045 65.4035 67.535 72.4818 74.5601C79.5602 81.5852 88.1553 85.0978 98.2672 85.0978C108.379 85.0978 116.974 81.5852 124.052 74.5601C131.131 67.535 134.67 59.0359 134.67 49.0628C134.67 39.0896 131.131 30.5591 124.052 23.4713C116.974 16.3835 108.379 12.8396 98.2672 12.8396C89.7985 12.8396 82.2145 15.5367 75.5154 20.931L69.8275 15.0976C67.8051 16.7285 65.9091 18.6102 64.1395 20.7428L69.8275 26.5762ZM98.2672 77.1945C90.4305 77.1945 83.7629 74.4347 78.2646 68.9149C72.7662 63.3952 70.0171 56.7465 70.0171 48.9687C70.0171 41.1909 72.7662 34.5735 78.2646 29.1165C83.7629 23.6595 90.4305 20.931 98.2672 20.931C106.104 20.931 112.771 23.6595 118.27 29.1165C123.768 34.5735 126.517 41.1909 126.517 48.9687C126.517 56.7465 123.768 63.3952 118.27 68.9149C112.771 74.4347 106.104 77.1945 98.2672 77.1945ZM117.269 41.921L111.091 35.7432L96.8472 49.9872L88.4277 41.5677L82.2499 47.7454L90.6694 56.165L90.5828 56.2515L96.7606 62.4293L117.269 41.921ZM19.2333 116.432C19.2333 118.218 18.9147 119.788 18.2777 121.142C17.6406 122.484 16.759 123.582 15.6328 124.435L18.8749 126.875L15.3598 129.793L10.7525 126.244L9.71165 126.295C7.86875 126.295 6.22494 125.903 4.7802 125.118C3.34684 124.333 2.22632 123.212 1.41863 121.756C0.622321 120.289 0.207101 118.599 0.172974 116.688V115.75C0.172974 113.805 0.565441 112.081 1.35038 110.579C2.13531 109.078 3.25015 107.917 4.69488 107.098C6.151 106.279 7.81756 105.87 9.69458 105.87C11.5147 105.87 13.1528 106.274 14.609 107.081C16.0651 107.889 17.197 109.044 18.0047 110.545C18.8123 112.036 19.2219 113.731 19.2333 115.63V116.432ZM13.4657 115.733C13.4657 113.981 13.1301 112.633 12.4589 111.689C11.7991 110.733 10.8777 110.255 9.69458 110.255C7.18051 110.255 5.92348 112.144 5.92348 115.92V116.432C5.92348 118.139 6.23632 119.481 6.86199 120.459C7.49904 121.438 8.44892 121.927 9.71165 121.927C10.872 121.927 11.7821 121.449 12.4419 120.494C13.1017 119.538 13.4429 118.23 13.4657 116.569V115.733ZM43.5274 106.143V118.872C43.5274 121.216 42.7765 123.042 41.2749 124.35C39.7733 125.647 37.6631 126.295 34.9443 126.295C32.2709 126.295 30.1664 125.641 28.6306 124.333C27.1063 123.025 26.3327 121.244 26.31 118.992V106.143H32.0946V118.89C32.0946 119.959 32.3335 120.727 32.8113 121.193C33.2891 121.648 34.0001 121.876 34.9443 121.876C35.9112 121.876 36.6165 121.648 37.0602 121.193C37.5152 120.727 37.7427 119.959 37.7427 118.89V106.143H43.5274ZM56.6276 122.541H63.7432L64.9718 126.022H70.7564L62.9071 106.143H57.3784L49.6826 126.022H55.4502L56.6276 122.541ZM62.361 118.617H57.9415L60.0403 112.439L60.1086 112.098L60.1939 112.474L62.361 118.617ZM82.611 121.603H91.2453V126.022H76.8434V106.143H82.611V121.603ZM98.4414 126.022H104.192V106.143H98.4414V126.022ZM129.612 110.579H123.282V126.022H117.497V110.579H111.354V106.143H129.612V110.579ZM136.791 126.022H142.542V106.143H136.791V126.022ZM158.236 106.143L162.382 118.821L166.529 106.143H174.19V126.022H168.389V122.951L168.969 112.32L164.242 126.022H160.522L155.796 112.337L156.393 122.951V126.022H150.608V106.143H158.236ZM187.649 117.968H195.464V113.531H187.649V110.579H197V106.143H181.881V126.022H196.915V121.603H187.649V117.968Z" fill="#22375F"/>
</svg>
